HIERARCHY
ROOT root     
{
	OFFSET 0.0000 0.0000 0.0000
	CHANNELS 6 Xposition Yposition Zposition Zrotation Yrotation Xrotation
	JOINT pelvis   
	{
		OFFSET 0.0000 0.0000 0.0000
		CHANNELS 3 Zrotation Yrotation Xrotation
		JOINT thorax   
		{
			OFFSET 0.0000 23.0750 -5.0000
			CHANNELS 3 Zrotation Yrotation Xrotation
			JOINT rclavicle
			{
				OFFSET 0.0000 28.0009 0.0000
				CHANNELS 3 Zrotation Yrotation Xrotation
				JOINT rhumerus 
				{
					OFFSET -18.5725 5.5939 0.0000
					CHANNELS 3 Zrotation Yrotation Xrotation
					JOINT rradius  
					{
						OFFSET -24.8459 0.0000 0.0000
						CHANNELS 3 Zrotation Yrotation Xrotation
						JOINT rhand    
						{
							OFFSET -24.5477 0.0000 0.0000
							CHANNELS 3 Zrotation Yrotation Xrotation
							End Site
							{
								OFFSET -8.1826 0.0000 0.0000
							}
						}
					}
				}
			}
			JOINT lclavicle
			{
				OFFSET 0.0000 28.0009 0.0000
				CHANNELS 3 Zrotation Yrotation Xrotation
				JOINT lhumerus 
				{
					OFFSET 18.5725 5.5939 0.0000
					CHANNELS 3 Zrotation Yrotation Xrotation
					JOINT lradius  
					{
						OFFSET 24.8459 0.0000 0.0000
						CHANNELS 3 Zrotation Yrotation Xrotation
						JOINT lhand    
						{
							OFFSET 24.5477 0.0000 0.0000
							CHANNELS 3 Zrotation Yrotation Xrotation
							End Site
							{
								OFFSET 8.1826 0.0000 0.0000
							}
						}
					}
				}
			}
			JOINT head     
			{
				OFFSET 0.0000 35.2030 0.0000
				CHANNELS 3 Zrotation Yrotation Xrotation
				End Site
				{
					OFFSET 0.0000 11.7343 0.0000
				}
			}
		}
		JOINT rfemur   
		{
			OFFSET -8.2817 0.0000 0.0000
			CHANNELS 3 Zrotation Yrotation Xrotation
			JOINT rtibia   
			{
				OFFSET 0.0000 -43.3627 0.0000
				CHANNELS 3 Zrotation Yrotation Xrotation
				JOINT rfoot    
				{
					OFFSET 0.0000 -38.2947 0.0000
					CHANNELS 3 Zrotation Yrotation Xrotation
					JOINT rtoes    
					{
						OFFSET 0.0000 0.0000 16.6054
						CHANNELS 3 Zrotation Yrotation Xrotation
						End Site
						{
							OFFSET 0.0000 0.0000 5.5351
						}
					}
				}
			}
		}
		JOINT lfemur   
		{
			OFFSET 8.2817 0.0000 0.0000
			CHANNELS 3 Zrotation Yrotation Xrotation
			JOINT ltibia   
			{
				OFFSET 0.0000 -43.3627 0.0000
				CHANNELS 3 Zrotation Yrotation Xrotation
				JOINT lfoot    
				{
					OFFSET 0.0000 -38.2947 0.0000
					CHANNELS 3 Zrotation Yrotation Xrotation
					JOINT ltoes    
					{
						OFFSET 0.0000 0.0000 16.6054
						CHANNELS 3 Zrotation Yrotation Xrotation
						End Site
						{
							OFFSET 0.0000 0.0000 5.5351
						}
					}
				}
			}
		}
	}
}
MOTION
Frames: 13
Frame Time: .0333333
107.39 80.951 18.328 141.033 -87.0792 -112.783 0 -0 0 -6.90205 -0.495007 -10.3275 17.3915 -3.38744 2.45861e-05 10.8416 40.2672 10.1999 0 65.4006 0 -0.103599 12.5212 -0.0114003 -16.4508 4.47951 -2.01818e-05 -13.9552 -29.1683 -31.3881 0 -10.6365 0 12.626 2.81275 0.311207 4.84428 0.772221 -17.9276 -3.06116 -10.0379 -25.3796 -0 -0 64.9386 7.76794e-07 -13.1903 9.59983 -2.23835 -8.63287e-06 -35.196 -5.47884 -1.96407 -26.489 -0 -0 37.4223 -0.00012506 12.3933 -18.2895 -3.94466 1.04196e-05 -31.6083 
105.8 81.375 18.257 150.022 -87.4967 -121.946 0 -0 0 -5.60349 -0.965596 -10.3325 17.3798 -3.37161 5.718e-06 11.4688 39.6247 9.46175 8.3631e-07 64.4113 5.26768e-07 -0.148102 12.4842 -0.0161998 -16.0823 4.42405 2.48605e-05 -14.174 -29.9941 -30.0855 0 -8.88393 0 12.119 2.76736 0.293877 4.85605 1.46579 -17.4316 -2.3252 -9.53592 -27.0392 -0 -0 65.4215 2.62514e-05 -13.0419 8.55683 -1.97403 -1.21919e-05 -34.5925 -4.78511 -1.77829 -24.3769 -0 -0 35.3734 3.88888e-05 11.9569 -16.6315 -3.46853 1.16498e-05 -33.9723 
104.21 81.8 18.184 161.488 -87.8721 -133.537 0 -0 0 -4.28689 -1.4536 -10.3511 17.3691 -3.37147 1.60957e-05 12.1245 38.9557 8.52244 8.11889e-07 63.4329 5.01743e-07 -0.330499 12.5983 -0.0364993 -15.7741 4.41082 -1.69449e-05 -14.4308 -30.7666 -28.7621 4.02669e-08 -7.58174 -6.0771e-07 11.7967 2.68164 0.277092 4.80706 2.14852 -17.0326 -1.56736 -9.0647 -28.7301 -0 -0 65.7069 -1.23034e-05 -12.8679 7.61972 -1.73503 -8.55541e-06 -34.2511 -4.07892 -1.64729 -22.3806 -0 -0 33.4315 6.64994e-05 11.5239 -14.7297 -2.96759 -1.99848e-06 -36.551 
102.61 82.227 18.11 175.535 -88.1489 -147.668 0 -0 0 -2.9793 -1.96139 -10.3898 17.3726 -3.39457 1.26144e-05 12.7903 38.2682 7.38444 7.8959e-07 62.4645 4.78803e-07 -0.650996 12.8449 -0.073301 -15.5231 4.4222 -1.73056e-05 -14.7054 -31.4784 -27.4681 0 -6.72328 0 11.6737 2.55159 0.260896 4.71015 2.80625 -16.7337 -0.807786 -8.62958 -30.4437 -0 -0 65.7873 1.41907e-05 -12.6815 6.74556 -1.51416 -5.13748e-06 -34.0188 -3.38388 -1.5721 -20.5215 -0 -0 31.6193 -5.69624e-05 11.1028 -12.606 -2.45241 8.20934e-07 -39.3235 
101.02 82.651 18.043 -168.702 -88.3453 -163.462 0 -0 0 -1.72643 -2.49443 -10.4552 17.4088 -3.44182 2.20238e-05 13.4442 37.5648 6.05786 0 61.5131 0 -1.10619 13.1905 -0.127893 -15.3241 4.43679 2.1689e-05 -14.9704 -32.1106 -26.2665 3.33755e-08 -6.29999 -6.06463e-07 11.7429 2.37859 0.244602 4.58319 3.43027 -16.5318 -0.0858344 -8.2389 -32.1751 -0 -0 65.6689 -1.54676e-05 -12.4836 5.89837 -1.30328 3.17579e-06 -33.7254 -2.73708 -1.5597 -18.8041 -0 -0 29.9435 9.01376e-07 10.7091 -10.2838 -1.93369 -1.00093e-05 -42.2288 
99.433 83.071 17.97 -150.464 -88.4576 178.312 0 -0 0 -0.486307 -3.03665 -10.5391 17.4742 -3.52539 -9.57015e-06 14.0744 36.8616 4.53696 0 60.5757 0 -1.66952 13.597 -0.199008 -15.1817 4.46106 -1.38858e-05 -15.2197 -32.7068 -25.2197 3.31038e-08 -6.24912 -6.06426e-07 11.9948 2.12454 0.223196 4.41935 4.0062 -16.4359 0.636314 -7.85641 -33.8903 -0 -0 65.3196 -2.03632e-05 -12.2993 5.0831 -1.1066 -2.80153e-06 -33.2878 -2.09885 -1.55269 -17.2414 -0 -0 28.43 1.5572e-07 10.3027 -7.80652 -1.41445 -2.62279e-05 -45.3275 
97.843 83.483 17.905 -132.731 -88.454 160.621 0 -0 0 0.661403 -3.59906 -10.6486 17.5895 -3.6321 -8.23089e-06 14.6632 36.1632 2.84571 0 59.6525 0 -2.33118 14.0087 -0.286487 -15.0779 4.46986 -2.31723e-06 -15.4263 -33.2212 -24.3567 3.48271e-08 -6.57087 -6.06701e-07 12.3771 1.80634 0.195896 4.243 4.53662 -16.437 1.28187 -7.50169 -35.5917 -0 -0 64.7718 -1.79802e-05 -12.0963 4.28557 -0.917512 5.71697e-07 -32.584 -1.53483 -1.58189 -15.8171 -0 -0 27.0422 -3.77968e-06 9.91965 -5.20262 -0.9085 8.31018e-07 -48.4366 
96.251 83.884 17.842 -115.907 -88.4302 143.894 0 -0 0 1.73682 -4.16995 -10.7768 17.7507 -3.76213 3.44018e-06 15.2015 35.4849 0.991342 -5.70654e-07 58.7432 -1.01393e-06 -3.06647 14.3772 -0.386888 -15.0107 4.46652 -1.68521e-05 -15.5854 -33.6634 -23.6836 0 -7.22472 0 12.8424 1.41365 0.159098 4.04936 5.01849 -16.5352 1.86413 -7.14983 -37.2615 -0 -0 64.019 -1.05958e-05 -11.8768 3.53049 -0.742007 -2.17564e-06 -31.6439 -1.02345 -1.61433 -14.5211 -0 -0 25.7715 2.8875e-06 9.53909 -2.51213 -0.421995 -3.05547e-06 -51.5247 
94.658 84.27 17.782 -101.089 -88.3494 129.198 0 -0 0 2.72241 -4.74605 -10.9184 17.9622 -3.90975 -1.82522e-05 15.6745 34.846 -1.00922 0 57.8436 0 -3.8592 14.6513 -0.496316 -14.9735 4.45397 -5.78558e-06 -15.6814 -34.0331 -23.1553 0 -8.18744 0 13.3323 0.960895 0.112301 3.84363 5.45622 -16.7229 2.363 -6.79938 -38.8888 -0 -0 63.081 1.40611e-05 -11.6201 2.83655 -0.583097 -8.50441e-06 -30.538 -0.576709 -1.65336 -13.3296 -0 -0 24.585 8.09268e-07 9.17027 0.232102 0.0375002 3.78267e-08 -54.4721 
93.062 84.639 17.712 -88.0714 -88.1798 116.326 0 -0 0 3.6797 -5.30349 -11.066 18.1842 -4.06443 6.94776e-06 16.1217 34.242 -3.16552 0 56.963 0 -4.66158 14.7908 -0.605411 -14.9541 4.43614 4.83659e-06 -15.7475 -34.3327 -22.7544 0 -9.42802 0 13.8099 0.440302 0.053301 3.60783 5.84669 -16.9999 2.82691 -6.41037 -40.4588 -0 -0 61.9434 -3.7261e-06 -11.3376 2.24588 -0.450208 1.48584e-06 -29.4754 -0.137798 -1.64663 -12.2379 -0 -0 23.4837 -4.3782e-06 8.76861 2.99527 0.461805 -1.5188e-06 -57.2802 
91.462 84.986 17.642 -77.7219 -87.9876 106.139 0 -0 0 4.56543 -5.84665 -11.2148 18.4275 -4.21848 -3.75352e-06 16.5239 33.6938 -5.45261 0 56.0946 0 -5.47481 14.7654 -0.709917 -14.9516 4.42086 -1.26042e-05 -15.75 -34.55 -22.3722 0 -10.9427 0 14.2402 -0.102 -0.0127003 3.3533 6.2009 -17.3535 3.21821 -6.00967 -41.9766 -0 -0 60.6419 3.83579e-07 -10.9847 1.75762 -0.341093 1.10592e-06 -28.5834 0.254801 -1.6323 -11.208 -0 -0 22.4147 1.36237e-06 8.37111 5.75648 0.845596 4.41521e-07 -59.7687 
89.859 85.307 17.567 -69.8063 -87.7491 98.4029 0 -0 0 5.40487 -6.36442 -11.3577 18.676 -4.36907 -8.60486e-06 16.8838 33.2199 -7.85953 -4.90968e-07 55.2433 -9.38275e-07 -6.29095 14.5638 -0.804638 -14.9712 4.42098 1.43598e-05 -15.6734 -34.6872 -21.9346 0 -12.7136 0 14.6164 -0.642296 -0.0823973 3.07217 6.52373 -17.7767 3.55957 -5.59314 -43.4378 -0 -0 59.1802 4.88566e-06 -10.5457 1.38406 -0.257604 -2.12054e-06 -28.0541 0.620205 -1.59844 -10.2216 -0 -0 21.3605 1.71066e-06 7.96948 8.49598 1.1849 3.47316e-06 -61.8914 
88.331 85.643 17.393 -47.2516 -86.8557 76.3813 0 -0 0 7.01649 -7.65335 -11.9843 18.7491 -4.50144 1.70661e-05 17.275 32.7662 -10.3532 0 54.4423 0 -7.07189 14.188 -0.881214 -15.1601 4.4498 -1.62722e-05 -15.5736 -34.7058 -21.3928 0 -14.7474 0 14.9556 -1.17823 -0.154611 2.60403 6.81873 -18.2126 4.52535 -5.87709 -45.0788 -0 -0 57.3444 -1.56433e-06 -10.1434 1.18542 -0.212102 -4.35219e-07 -28.0919 1.6507 -2.13645 -10.0334 -0 -0 20.8808 2.44339e-06 7.24971 11.0277 1.39387 -2.02233e-05 -63.7519 
